<svg width="34" height="34" viewBox="0 0 34 34" fill="none" xmlns="http://www.w3.org/2000/svg">
<path d="M17.9333 30.1979C17.3246 30.3814 16.6754 30.3814 16.0667 30.1979C11.7167 28.6646 2 22.5312 2 11.9979C2 10.2489 2.55031 8.54418 3.57298 7.1253C4.59565 5.70642 6.03884 4.64528 7.6981 4.09219C9.35737 3.5391 11.1486 3.5221 12.8181 4.0436C14.4875 4.56511 15.9506 5.59867 17 6.99788C18.0494 5.59867 19.5125 4.56511 21.1819 4.0436C22.8514 3.5221 24.6426 3.5391 26.3019 4.09219C27.9612 4.64528 29.4043 5.70642 30.427 7.1253C31.4497 8.54418 32 10.2489 32 11.9979C32 22.5312 22.2833 28.6646 17.9333 30.1979Z" stroke="#303037" stroke-width="2" stroke-linecap="round" stroke-linejoin="round"/>
</svg>
